<?xml version="1.0" encoding="UTF-8" standalone="no"?>
<!-- Created with Inkscape (http://www.inkscape.org/) -->

<svg
   xmlns:dc="http://purl.org/dc/elements/1.1/"
   xmlns:cc="http://creativecommons.org/ns#"
   xmlns:rdf="http://www.w3.org/1999/02/22-rdf-syntax-ns#"
   xmlns:svg="http://www.w3.org/2000/svg"
   xmlns="http://www.w3.org/2000/svg"
   xmlns:sodipodi="http://sodipodi.sourceforge.net/DTD/sodipodi-0.dtd"
   xmlns:inkscape="http://www.inkscape.org/namespaces/inkscape"
   width="96"
   height="96"
   id="svg1307"
   sodipodi:version="0.32"
   inkscape:version="0.48.3.1 r9886"
   sodipodi:docname="emblem-system.svg"
   inkscape:output_extension="org.inkscape.output.svg.inkscape"
   version="1.1">
  <defs
     id="defs1309" />
  <sodipodi:namedview
     id="base"
     pagecolor="#ffffff"
     bordercolor="#666666"
     borderopacity="1.0"
     inkscape:pageopacity="0.0"
     inkscape:pageshadow="2"
     inkscape:zoom="2.8284271"
     inkscape:cx="1.9375"
     inkscape:cy="24"
     inkscape:current-layer="layer1"
     showgrid="true"
     inkscape:grid-bbox="true"
     inkscape:document-units="px"
     inkscape:window-width="1276"
     inkscape:window-height="716"
     inkscape:window-x="0"
     inkscape:window-y="26"
     inkscape:window-maximized="0" />
  <metadata
     id="metadata1312">
    <rdf:RDF>
      <cc:Work
         rdf:about="">
        <dc:format>image/svg+xml</dc:format>
        <dc:type
           rdf:resource="http://purl.org/dc/dcmitype/StillImage" />
        <dc:title>System (emblem)</dc:title>
        <dc:creator>
          <cc:Agent>
            <dc:title>Luca Ferretti</dc:title>
          </cc:Agent>
        </dc:creator>
        <dc:subject>
          <rdf:Bag>
            <rdf:li>emblem</rdf:li>
            <rdf:li>system</rdf:li>
          </rdf:Bag>
        </dc:subject>
        <cc:license
           rdf:resource="http://creativecommons.org/licenses/LGPL/2.1/" />
      </cc:Work>
      <cc:License
         rdf:about="http://creativecommons.org/licenses/LGPL/2.1/">
        <cc:permits
           rdf:resource="http://web.resource.org/cc/Reproduction" />
        <cc:permits
           rdf:resource="http://web.resource.org/cc/Distribution" />
        <cc:requires
           rdf:resource="http://web.resource.org/cc/Notice" />
        <cc:permits
           rdf:resource="http://web.resource.org/cc/DerivativeWorks" />
        <cc:requires
           rdf:resource="http://web.resource.org/cc/ShareAlike" />
        <cc:requires
           rdf:resource="http://web.resource.org/cc/SourceCode" />
      </cc:License>
    </rdf:RDF>
  </metadata>
  <g
     id="layer1"
     inkscape:label="Layer 1"
     inkscape:groupmode="layer"
     transform="translate(0,48)">
    <rect
       style="fill:none;stroke:none"
       id="rect3942"
       width="48"
       height="48"
       x="0"
       y="0"
       ry="0" />
    <path
       transform="translate(24,-22.0625)"
       d="m 23.938113,3.1251011 c 4.865407,-0.148269 0.276206,4.640799 4.779399,6.4888839 4.853316,1.991773 4.808647,-4.5808652 8.62949,-0.986009 3.545205,3.33552 -3.086233,3.476847 -1.208788,7.967879 2.023416,4.840209 6.639388,0.161066 6.799185,5.404758 0.148269,4.865407 -4.640799,0.276206 -6.488884,4.779399 -1.991773,4.853316 4.580865,4.808647 0.986009,8.62949 -3.33552,3.545205 -3.476847,-3.086233 -7.967879,-1.208788 -4.840209,2.023416 -0.161066,6.639388 -5.404758,6.799185 -4.865407,0.148269 -0.276206,-4.640799 -4.779399,-6.488884 -4.853316,-1.991773 -4.808647,4.580865 -8.62949,0.986009 -3.5452046,-3.33552 3.086233,-3.476847 1.208788,-7.967879 -2.0234165,-4.840209 -6.6393879,-0.161066 -6.7991849,-5.404758 -0.148269,-4.865407 4.640799,-0.276206 6.4888839,-4.779399 1.991773,-4.853316 -4.5808652,-4.808647 -0.986009,-8.6294904 3.33552,-3.5452042 3.476847,3.0862334 7.967879,1.2087882 4.840209,-2.0234163 0.161066,-6.6393877 5.404758,-6.7991847 z"
       inkscape:randomized="0"
       inkscape:rounded="0.604"
       inkscape:flatsided="false"
       sodipodi:arg2="-1.2085568"
       sodipodi:arg1="-1.5740643"
       sodipodi:r2="13.312417"
       sodipodi:r1="18.9375"
       sodipodi:cy="22.0625"
       sodipodi:cx="24"
       sodipodi:sides="8"
       id="path2190"
       style="fill:#000000;fill-opacity:1;fill-rule:evenodd;stroke:#ffffff;stroke-width:4;stroke-linecap:butt;stroke-linejoin:miter;stroke-miterlimit:4;stroke-opacity:1;stroke-dasharray:none"
       sodipodi:type="star" />
    <path
       sodipodi:type="star"
       style="fill:#bebebe;fill-opacity:1;fill-rule:evenodd;stroke:none"
       id="path1315"
       sodipodi:sides="8"
       sodipodi:cx="24"
       sodipodi:cy="22.0625"
       sodipodi:r1="18.9375"
       sodipodi:r2="13.312417"
       sodipodi:arg1="-1.5740643"
       sodipodi:arg2="-1.2085568"
       inkscape:flatsided="false"
       inkscape:rounded="0.604"
       inkscape:randomized="0"
       d="m 23.938113,3.1251011 c 4.865407,-0.148269 0.276206,4.640799 4.779399,6.4888839 4.853316,1.991773 4.808647,-4.5808652 8.62949,-0.986009 3.545205,3.33552 -3.086233,3.476847 -1.208788,7.967879 2.023416,4.840209 6.639388,0.161066 6.799185,5.404758 0.148269,4.865407 -4.640799,0.276206 -6.488884,4.779399 -1.991773,4.853316 4.580865,4.808647 0.986009,8.62949 -3.33552,3.545205 -3.476847,-3.086233 -7.967879,-1.208788 -4.840209,2.023416 -0.161066,6.639388 -5.404758,6.799185 -4.865407,0.148269 -0.276206,-4.640799 -4.779399,-6.488884 -4.853316,-1.991773 -4.808647,4.580865 -8.62949,0.986009 -3.5452046,-3.33552 3.086233,-3.476847 1.208788,-7.967879 -2.0234165,-4.840209 -6.6393879,-0.161066 -6.7991849,-5.404758 -0.148269,-4.865407 4.640799,-0.276206 6.4888839,-4.779399 1.991773,-4.853316 -4.5808652,-4.808647 -0.986009,-8.6294904 3.33552,-3.5452042 3.476847,3.0862334 7.967879,1.2087882 4.840209,-2.0234163 0.161066,-6.6393877 5.404758,-6.7991847 z"
       transform="translate(24,-22.0625)" />
    <path
       sodipodi:type="arc"
       style="fill:#ffffff;fill-opacity:1;fill-rule:evenodd;stroke:none"
       id="path3065"
       sodipodi:cx="24.0625"
       sodipodi:cy="23.9375"
       sodipodi:rx="5.0546875"
       sodipodi:ry="4.9375"
       d="m 29.117187,23.9375 a 5.0546875,4.9375 0 1 1 -10.109375,0 5.0546875,4.9375 0 1 1 10.109375,0 z"
       transform="translate(23.992187,-23.812503)" />
  </g>
</svg>
