<?xml version="1.0" encoding="UTF-8" standalone="no"?>
<!-- Generator: Adobe Illustrator 9.0, SVG Export Plug-In  -->

<svg
   xmlns:dc="http://purl.org/dc/elements/1.1/"
   xmlns:cc="http://creativecommons.org/ns#"
   xmlns:rdf="http://www.w3.org/1999/02/22-rdf-syntax-ns#"
   xmlns:svg="http://www.w3.org/2000/svg"
   xmlns="http://www.w3.org/2000/svg"
   xmlns:sodipodi="http://sodipodi.sourceforge.net/DTD/sodipodi-0.dtd"
   xmlns:inkscape="http://www.inkscape.org/namespaces/inkscape"
   width="96"
   height="96"
   viewBox="0 0 96 96"
   xml:space="preserve"
   id="svg2"
   sodipodi:version="0.32"
   inkscape:version="0.48.3.1 r9886"
   sodipodi:docname="go-home.svg"
   version="1.0"><metadata
   id="metadata23"><rdf:RDF><cc:Work
       rdf:about=""><dc:format>image/svg+xml</dc:format><dc:type
         rdf:resource="http://purl.org/dc/dcmitype/StillImage" /><dc:title>Home Folder Icon</dc:title><dc:coverage /><dc:description>The user's $HOME directory</dc:description><cc:license
         rdf:resource="http://creativecommons.org/licenses/LGPL/2.1/" /><dc:subject><rdf:Bag><rdf:li>folder</rdf:li><rdf:li>directory</rdf:li><rdf:li>home</rdf:li><rdf:li>user</rdf:li></rdf:Bag></dc:subject></cc:Work><cc:License
       rdf:about="http://creativecommons.org/licenses/LGPL/2.1/"><cc:permits
         rdf:resource="http://web.resource.org/cc/Reproduction" /><cc:permits
         rdf:resource="http://web.resource.org/cc/Distribution" /><cc:requires
         rdf:resource="http://web.resource.org/cc/Notice" /><cc:permits
         rdf:resource="http://web.resource.org/cc/DerivativeWorks" /><cc:requires
         rdf:resource="http://web.resource.org/cc/ShareAlike" /><cc:requires
         rdf:resource="http://web.resource.org/cc/SourceCode" /></cc:License></rdf:RDF></metadata><defs
   id="defs21" /><sodipodi:namedview
   inkscape:window-height="716"
   inkscape:window-width="1268"
   inkscape:pageshadow="2"
   inkscape:pageopacity="0.0"
   borderopacity="1.0"
   bordercolor="#666666"
   pagecolor="#ffffff"
   id="base"
   showgrid="true"
   inkscape:grid-bbox="true"
   inkscape:grid-points="true"
   inkscape:zoom="5.6200257"
   inkscape:cx="2.2029465"
   inkscape:cy="21.180502"
   inkscape:window-x="6"
   inkscape:window-y="27"
   inkscape:current-layer="svg2"
   showguides="true"
   inkscape:guide-bbox="true"
   inkscape:window-maximized="0" />
	<rect
   style="fill:none;stroke:none"
   id="rect1333"
   width="48"
   height="48"
   x="24"
   y="24"
   rx="0.046648435"
   ry="0" /><path
   sodipodi:nodetypes="csscccccccccsccccccccc"
   id="path2208"
   d="m 29,46 c 0,0 -1,0.6 -1,1 0,0.2 -0.1,0.8 0,1 0.3,0.6 1.3,1 2,1 0,0 0.9,0 2,0 0,2.4 0,14 0,14 0,1.1 1,2 2,2 l 28,0 c 1.1,0 2,-0.9 2,-2 0,0 0,-11.6 0,-14 1,0 2,0 2,0 0.8,0 1.7,-0.3 2,-1 0.1,-0.2 0,-0.8 0,-1 0,-0.5 -0.5,-0.6 -1,-1 0,0 -3.1,-2.3 -4,-3 0,-1.2 0,-9 0,-9 0,-1.2 -0.8,-2 -2,-2 l -6,0 c -1,0 -2,1 -2,2 -1.9,-1.6 -3.6,-3.3 -3.6,-3.3 0,0 -1.7,-0.7 -2.6,0 L 29,46 z"
   style="fill:#ffffff;fill-opacity:1;fill-rule:evenodd;stroke:#ffffff;stroke-width:8;stroke-miterlimit:4;stroke-opacity:1;stroke-dasharray:none"
   inkscape:connector-curvature="0" /><path
   style="fill:#000000;fill-rule:evenodd;stroke:none"
   d="m 29,46 c 0,0 -1,0.6 -1,1 0,0.2 -0.1,0.8 0,1 0.3,0.6 1.3,1 2,1 0,0 0.9,0 2,0 0,2.4 0,14 0,14 0,1.1 1,2 2,2 l 28,0 c 1.1,0 2,-0.9 2,-2 0,0 0,-11.6 0,-14 1,0 2,0 2,0 0.8,0 1.7,-0.3 2,-1 0.1,-0.2 0,-0.8 0,-1 0,-0.5 -0.5,-0.6 -1,-1 0,0 -3.1,-2.3 -4,-3 0,-1.2 0,-9 0,-9 0,-1.2 -0.8,-2 -2,-2 l -6,0 c -1,0 -2,1 -2,2 -1.9,-1.6 -3.6,-3.3 -3.6,-3.3 l 0.1,0.1 C 48.8,30.1 47.7,30 46.8,30.7 L 29,46 z"
   id="path9"
   sodipodi:nodetypes="csscccccccccscccccccccc"
   inkscape:connector-curvature="0" /><path
   style="fill:#ffffff;fill-rule:evenodd;stroke:none"
   d="m 60,36 c 0,0 0,-1 -1,-1 l -2,0 c -1,0 -1,1 -1,1 l 0,1.8 3.9,2.9 L 60,36 z"
   id="path13"
   sodipodi:nodetypes="ccccccc"
   inkscape:connector-curvature="0" /><path
   style="fill:#ffffff;fill-rule:evenodd;stroke:none"
   d="m 36,49 0,12 24,0 0,-12 -24,0 z"
   id="path15"
   sodipodi:nodetypes="ccccc"
   inkscape:connector-curvature="0" />
	<g
   id="crop_x0020_marks"
   style="fill-rule:nonzero;stroke:#000000;stroke-miterlimit:4"
   transform="translate(24,24)">
		<path
   style="fill:none;stroke:none"
   d="M 48,48 0,48 0,0 48,0 48,48 z"
   id="path18"
   inkscape:connector-curvature="0" />
	</g>
</svg>